<svg width="80" height="13" viewBox="0 0 80 13" fill="none" xmlns="http://www.w3.org/2000/svg">
<path id="Arrow 3" d="M79.3865 6.84119L74.7644 2.05808L69.8147 6.84119L74.4368 11.6243L79.3865 6.84119ZM0.303045 6.25539C-0.0317583 6.57892 -0.0497236 7.10347 0.262919 7.427L5.35771 12.6993C5.67035 13.0228 6.19522 13.0228 6.53001 12.6993C6.86482 12.3757 6.88278 11.8512 6.57014 11.5277L2.04144 6.84119L6.89115 2.15473C7.22595 1.8312 7.24392 1.30665 6.93128 0.983113C6.61864 0.659579 6.09378 0.65958 5.75897 0.983113L0.303045 6.25539ZM74.629 6.01273L0.897507 6.01274L0.840759 7.66965L74.5722 7.66964L74.629 6.01273Z" fill="#2D2D2D"/>
</svg>
