<svg width="34" height="29" viewBox="0 0 34 29" fill="none" xmlns="http://www.w3.org/2000/svg">
<g id="icn resize .icn-xl" clip-path="url(#clip0_1579_90)">
<path id="Vector" fill-rule="evenodd" clip-rule="evenodd" d="M31.9416 27.4119C31.9416 27.4119 34.0869 27.4119 34.0869 25.2473C34.0869 23.0827 31.9416 16.5888 23.3605 16.5888C14.7793 16.5888 12.634 23.0827 12.634 25.2473C12.634 27.4119 14.7793 27.4119 14.7793 27.4119H31.9416ZM14.8265 25.2473H31.8944C31.9045 25.2461 31.9145 25.2447 31.9244 25.243L31.9416 25.2386C31.9373 24.6672 31.5833 23.0091 30.3112 21.5155C29.127 20.115 27.0461 18.7535 23.3605 18.7535C19.677 18.7535 17.5961 20.1172 16.4097 21.5155C15.1376 23.0091 14.7814 24.6694 14.7793 25.2386C14.795 25.2417 14.8107 25.2446 14.8265 25.2473ZM23.3605 12.2596C24.4984 12.2596 25.5897 11.8035 26.3944 10.9916C27.199 10.1797 27.651 9.07857 27.651 7.93038C27.651 6.7822 27.199 5.68104 26.3944 4.86916C25.5897 4.05727 24.4984 3.60115 23.3605 3.60115C22.2225 3.60115 21.1312 4.05727 20.3266 4.86916C19.5219 5.68104 19.0699 6.7822 19.0699 7.93038C19.0699 9.07857 19.5219 10.1797 20.3266 10.9916C21.1312 11.8035 22.2225 12.2596 23.3605 12.2596ZM29.7963 7.93038C29.7963 8.78317 29.6299 9.6276 29.3064 10.4155C28.983 11.2033 28.5089 11.9192 27.9113 12.5222C27.3137 13.1252 26.6042 13.6036 25.8234 13.9299C25.0425 14.2563 24.2056 14.4242 23.3605 14.4242C22.5153 14.4242 21.6784 14.2563 20.8976 13.9299C20.1167 13.6036 19.4072 13.1252 18.8096 12.5222C18.212 11.9192 17.7379 11.2033 17.4145 10.4155C17.0911 9.6276 16.9246 8.78317 16.9246 7.93038C16.9246 6.20811 17.6027 4.55637 18.8096 3.33854C20.0166 2.12071 21.6536 1.43654 23.3605 1.43654C25.0674 1.43654 26.7043 2.12071 27.9113 3.33854C29.1183 4.55637 29.7963 6.20811 29.7963 7.93038ZM14.642 17.1949C13.7838 16.9223 12.8992 16.743 12.0033 16.6603C11.4999 16.612 10.9944 16.5881 10.4887 16.5888C1.90757 16.5888 -0.237717 23.0827 -0.237717 25.2473C-0.237717 26.6911 0.476664 27.4119 1.90757 27.4119H10.9521C10.6341 26.7362 10.4755 25.9953 10.4887 25.2473C10.4887 23.061 11.2975 20.8272 12.8271 18.9613C13.3484 18.3249 13.9555 17.7296 14.642 17.1949ZM10.3171 18.7535C6.73876 18.7968 4.70717 20.1388 3.53799 21.5155C2.25725 23.0178 1.90757 24.6823 1.90757 25.2473H8.34344C8.34344 22.9853 9.03637 20.7319 10.3171 18.7535ZM2.98022 9.01269C2.98022 7.29042 3.65828 5.63868 4.86524 4.42085C6.0722 3.20302 7.70918 2.51885 9.41608 2.51885C11.123 2.51885 12.76 3.20302 13.9669 4.42085C15.1739 5.63868 15.8519 7.29042 15.8519 9.01269C15.8519 10.735 15.1739 12.3867 13.9669 13.6045C12.76 14.8224 11.123 15.5065 9.41608 15.5065C7.70918 15.5065 6.0722 14.8224 4.86524 13.6045C3.65828 12.3867 2.98022 10.735 2.98022 9.01269ZM9.41608 4.68346C8.27815 4.68346 7.18682 5.13958 6.38218 5.95146C5.57755 6.76335 5.1255 7.86451 5.1255 9.01269C5.1255 10.1609 5.57755 11.262 6.38218 12.0739C7.18682 12.8858 8.27815 13.3419 9.41608 13.3419C10.554 13.3419 11.6453 12.8858 12.45 12.0739C13.2546 11.262 13.7067 10.1609 13.7067 9.01269C13.7067 7.86451 13.2546 6.76335 12.45 5.95146C11.6453 5.13958 10.554 4.68346 9.41608 4.68346Z" fill="#23A6F0"/>
</g>
<defs>
<clipPath id="clip0_1579_90">
<rect width="33.3969" height="27.5034" fill="white" transform="translate(-0.00582886 0.50885)"/>
</clipPath>
</defs>
</svg>
