<svg width="22" height="23" viewBox="0 0 22 23" fill="none" xmlns="http://www.w3.org/2000/svg">
<g id="icn bxs-star">
<path id="Vector" d="M20.1223 8.41927C20.0646 8.24946 19.9585 8.10025 19.817 7.99006C19.6755 7.87987 19.5049 7.81353 19.3261 7.79922L14.097 7.38371L11.8341 2.3747C11.7621 2.21337 11.6449 2.07634 11.4966 1.98016C11.3484 1.88397 11.1755 1.83274 10.9988 1.83264C10.8221 1.83254 10.6492 1.88359 10.5009 1.97961C10.3525 2.07563 10.2352 2.21253 10.1629 2.37378L7.90012 7.38371L2.67097 7.79922C2.49528 7.81314 2.32732 7.87738 2.18718 7.98425C2.04704 8.09113 1.94066 8.23612 1.88077 8.40187C1.82087 8.56762 1.81 8.74712 1.84944 8.91889C1.88889 9.09066 1.97699 9.24743 2.1032 9.37044L5.96751 13.1375L4.60083 19.0555C4.55933 19.2347 4.57263 19.4221 4.639 19.5936C4.70538 19.7651 4.82176 19.9127 4.97304 20.0172C5.12433 20.1217 5.30354 20.1783 5.48741 20.1797C5.67129 20.1811 5.85134 20.1272 6.0042 20.025L10.9985 16.6955L15.9929 20.025C16.1491 20.1288 16.3334 20.1822 16.5209 20.1781C16.7084 20.1739 16.8901 20.1125 17.0416 20.002C17.1932 19.8916 17.3073 19.7373 17.3685 19.5601C17.4298 19.3828 17.4353 19.1911 17.3843 19.0106L15.7067 13.1403L19.8673 9.39612C20.1397 9.15031 20.2397 8.7669 20.1223 8.41927Z" fill="#F3CD03"/>
</g>
</svg>
